<?xml version="1.0" standalone="no"?>
<!DOCTYPE svg PUBLIC "-//W3C//DTD SVG 1.1//EN" "http://www.w3.org/Graphics/SVG/1.1/DTD/svg11.dtd" >
<svg xmlns="http://www.w3.org/2000/svg">
<metadata></metadata>
<defs>
<font id="good_timesregular" horiz-adv-x="2025" >
<font-face units-per-em="2048" ascent="1636" descent="-412" />
<missing-glyph horiz-adv-x="602" />
<glyph unicode="&#x28;C&#x29;" horiz-adv-x="1697" d="M86 745q0 158 60.5 297.5t164 243t242.5 162.5t297 59t297 -59t242.5 -162.5t163 -243t59.5 -297.5t-59.5 -297t-163 -243.5t-242.5 -164.5t-297 -60t-297 60t-242.5 164.5t-164 244t-60.5 296.5zM160 743q0 -143 53 -270t147.5 -221t221.5 -148.5t272 -54.5 q143 0 268 54.5t219.5 148.5t148.5 221t54 270t-54 270.5t-148.5 222.5t-219.5 149.5t-268 54.5q-145 0 -272 -54.5t-221.5 -149.5t-147.5 -222t-53 -271zM463 748q0 78 28.5 142t79 110.5t120 71t151.5 24.5h250v-97h-250q-57 0 -106.5 -18t-86.5 -53t-57.5 -83t-20.5 -106 q0 -55 20.5 -102t56.5 -81t85 -53.5t109 -19.5h250v-94h-250q-82 0 -151.5 27.5t-120 76t-79 114t-28.5 141.5z" />
<glyph unicode="&#x28;R&#x29;" horiz-adv-x="1198" d="M129 1036q0 98 37 184.5t100.5 150t148.5 100t183 36.5t183 -36.5t149.5 -100t101.5 -150t37 -184.5t-37 -183t-101.5 -148.5t-149.5 -100.5t-183 -37t-183 37t-148.5 100.5t-100.5 148.5t-37 183zM201 1036q0 -82 31.5 -153.5t86 -124.5t126 -84t153.5 -31t153.5 31 t125 84t85 124.5t31.5 153.5t-31.5 156t-85 127t-125 85t-153.5 32t-153.5 -32t-126 -85t-86 -127t-31.5 -156zM385 868v381h291q70 0 107.5 -37.5t37.5 -101.5q0 -47 -21.5 -80t-60.5 -49l119 -113h-104l-103 103h-108v65h133q74 0 74 72q0 33 -19.5 52.5t-54.5 19.5h-219 v-312h-72z" />
<glyph horiz-adv-x="2048" />
<glyph horiz-adv-x="2048" />
<glyph unicode="&#xd;" horiz-adv-x="212" />
<glyph horiz-adv-x="602" />
<glyph unicode=" "  horiz-adv-x="602" />
<glyph unicode="&#x09;" horiz-adv-x="602" />
<glyph unicode="&#xa0;" horiz-adv-x="602" />
<glyph unicode="!" horiz-adv-x="610" d="M170 123q0 59 40 98t99 39q61 0 100.5 -39t39.5 -98q0 -63 -39.5 -102t-100.5 -39q-59 0 -99 38.5t-40 102.5zM182 479v1012h246v-1012h-246z" />
<glyph unicode="&#x22;" horiz-adv-x="925" d="M139 1489h264l-47 -535h-170zM522 1489h264l-47 -535h-168z" />
<glyph unicode="#" horiz-adv-x="1427" d="M90 403v175h238l106 358h-186v172h239l115 381h186l-114 -381h303l115 381h184l-115 -381h187v-172h-240l-107 -358h187v-175h-240l-121 -403h-184l121 403h-305l-121 -403h-182l118 403h-184zM512 578h305l107 358h-306z" />
<glyph unicode="$" horiz-adv-x="1523" d="M117 1010q0 72 23.5 133t70.5 105t114.5 69.5t157.5 25.5h232v146h114v-146h517v-208h-517v-293h203q180 0 275.5 -84t95.5 -262q0 -76 -22.5 -139.5t-68.5 -110.5t-116 -74t-164 -27h-203v-145h-114v145h-582v213h582v312h-234q-84 0 -151.5 25.5t-114.5 70.5 t-72.5 107.5t-25.5 136.5zM334 989q0 -70 41 -108.5t108 -38.5h232v293h-232q-72 0 -110.5 -40t-38.5 -106zM829 358h203q86 0 129 41t43 113q0 80 -44 119t-128 39h-203v-312z" />
<glyph unicode="%" horiz-adv-x="1976" d="M86 1146q0 82 29.5 151t81 119t122 77.5t152.5 27.5t152.5 -27.5t122.5 -77.5t82 -119t30 -151q0 -80 -30 -151.5t-82 -123.5t-122.5 -83t-152.5 -31t-152.5 31t-122 83t-81 124t-29.5 151zM199 -137l1345 1716h174l-1341 -1716h-178zM215 1140q0 -109 66.5 -180.5 t189.5 -71.5t189.5 71.5t66.5 180.5t-66.5 179.5t-189.5 70.5t-189.5 -70.5t-66.5 -179.5zM1118 358q0 82 29.5 151t81 119t122 77.5t152.5 27.5t152.5 -27.5t122.5 -77.5t82 -119t30 -151q0 -80 -30 -151.5t-82 -123.5t-122.5 -83t-152.5 -31t-152.5 31t-122 83t-81 124 t-29.5 151zM1247 352q0 -109 66.5 -180.5t189.5 -71.5t189.5 71.5t66.5 180.5t-66.5 179.5t-189.5 70.5t-189.5 -70.5t-66.5 -179.5z" />
<glyph unicode="&#x26;" horiz-adv-x="1554" d="M100 453q0 129 66.5 215t167.5 118q-84 27 -144.5 102t-60.5 216q0 94 34 166.5t97.5 121t152.5 73t197 24.5h283v-258h-291q-211 0 -211 -184q0 -86 53.5 -133.5t163.5 -47.5h795v-217h-176v-389h268v-260h-915q-111 0 -200 31.5t-150.5 91t-95.5 143.5t-34 187z M362 459q0 -96 68 -147.5t193 -51.5h344v389h-340q-127 0 -196 -41t-69 -149z" />
<glyph unicode="'" horiz-adv-x="522" d="M129 1489h264l-49 -535h-166z" />
<glyph unicode="(" horiz-adv-x="729" d="M193 760q0 227 53 451.5t164 480.5h188q-121 -274 -180.5 -500.5t-59.5 -433.5q0 -209 55.5 -437.5t186.5 -502.5h-184q-119 258 -171 486t-52 456z" />
<glyph unicode=")" horiz-adv-x="727" d="M129 -182q129 274 184.5 502.5t55.5 437.5t-57.5 433t-178.5 501h184q111 -256 165.5 -480.5t54.5 -451.5t-52.5 -455.5t-171.5 -486.5h-184z" />
<glyph unicode="*" horiz-adv-x="960" d="M129 1190l37 115l252 -78v262h123v-262l254 78l36 -115l-253 -78l157 -223l-96 -72l-160 223l-157 -223l-97 74l156 221z" />
<glyph unicode="+" horiz-adv-x="1413" d="M129 672v172h492v491h174v-491h489v-172h-489v-494h-174v494h-492z" />
<glyph unicode="," horiz-adv-x="530" d="M139 -242v533h262l-102 -533h-160z" />
<glyph unicode="-" horiz-adv-x="606" d="M59 670v174h492v-174h-492z" />
<glyph unicode="." horiz-adv-x="536" d="M129 123q0 59 39 99t98 40t100.5 -40t41.5 -99t-41 -99t-101 -40q-59 0 -98 39.5t-39 99.5z" />
<glyph unicode="/" horiz-adv-x="909" d="M18 0l701 1489h170l-690 -1489h-181z" />
<glyph unicode="0" horiz-adv-x="1716" d="M86 760q0 164 59.5 301t163 236.5t244.5 154.5t305 55q162 0 303.5 -55t245.5 -154.5t163.5 -236.5t59.5 -301t-59.5 -305.5t-163.5 -247t-245.5 -165.5t-303.5 -60q-164 0 -305 60t-244.5 165.5t-163 247t-59.5 305.5zM346 748q0 -109 34 -201t99.5 -160t159.5 -106.5 t217 -38.5t218 38.5t160.5 106.5t99.5 160t34 201q0 106 -34 198t-99.5 157.5t-160.5 103.5t-216 38q-123 0 -218 -38t-160.5 -103.5t-99.5 -157.5t-34 -198z" />
<glyph unicode="1" horiz-adv-x="788" d="M49 1229v260h144q225 0 345.5 -128t120.5 -360v-1001h-258v1001q0 111 -53 169.5t-155 58.5h-144z" />
<glyph unicode="2" horiz-adv-x="1689" d="M129 0v436q0 217 116.5 323.5t342.5 106.5h538q86 0 137.5 47.5t51.5 133.5t-50.5 134t-138.5 48h-985v260h985q111 0 196 -32t143.5 -87t88 -132t29.5 -167q0 -92 -31.5 -170t-90 -134t-142.5 -88t-191 -32h-540q-213 0 -213 -192v-195h1184v-260h-1430z" />
<glyph unicode="3" horiz-adv-x="1693" d="M94 0v260h957q123 0 200.5 49t77.5 148q0 92 -57.5 141t-167.5 49h-658v219h639q111 0 164.5 41t53.5 140q0 104 -70 144t-199 40h-934v258h985q109 0 197 -24.5t151.5 -73t97.5 -121t34 -166.5q0 -141 -60.5 -216t-144.5 -102q102 -33 167.5 -118.5t65.5 -216.5 q0 -102 -33.5 -185.5t-96 -141.5t-151.5 -91t-198 -33h-1020z" />
<glyph unicode="4" horiz-adv-x="1730" d="M98 874v615h260v-612q0 -129 56.5 -179.5t173.5 -50.5h616v842h260v-842h215v-250h-215v-397h-260v397h-616q-236 0 -363 115t-127 362z" />
<glyph unicode="5" horiz-adv-x="1812" d="M129 0v260h1116q104 0 159.5 53.5t55.5 141.5q0 96 -55 144t-160 48h-1116v842h1505v-260h-1237v-363h848q225 0 343 -106.5t118 -323.5q0 -94 -28.5 -174t-86 -138t-143.5 -91t-203 -33h-1116z" />
<glyph unicode="6" horiz-adv-x="1785" d="M86 760q0 190 46 327.5t134 226.5t213 132t283 43h854v-260h-854q-178 0 -281.5 -85t-128.5 -276h873q213 0 332.5 -100t119.5 -315q0 -217 -120.5 -335t-331.5 -118h-463q-158 0 -283 47t-213 141.5t-134 237.5t-46 334zM350 647q20 -203 125 -295t287 -92h438 q111 0 169 52.5t58 150.5q0 184 -227 184h-850z" />
<glyph unicode="7" horiz-adv-x="1548" d="M90 1229v260h1251q88 0 126 -36t38 -87q0 -29 -9 -57.5t-40 -65.5l-1016 -1243h-338l1018 1229h-1030z" />
<glyph unicode="8" horiz-adv-x="1839" d="M104 451q0 131 66 217t168 118q-84 27 -144.5 102t-60.5 216q0 94 34 166.5t97.5 121t151.5 73t196 24.5h615q109 0 197.5 -24.5t151 -73t97.5 -121t35 -166.5q0 -72 -16.5 -125t-45 -91t-66.5 -63.5t-79 -38.5q102 -33 168 -118.5t66 -216.5q0 -102 -34 -185.5 t-96.5 -143t-151.5 -91t-198 -31.5h-671q-109 0 -198 31.5t-151.5 91t-96.5 142.5t-34 186zM367 455q0 -98 78.5 -146.5t201.5 -48.5h545q123 0 202 48t79 147q0 92 -58.5 142t-169.5 50h-651q-111 0 -169 -50t-58 -142zM395 1047q0 -98 53.5 -139.5t163.5 -41.5h615 q111 0 164 41t53 140q0 104 -68.5 144t-197.5 40h-516q-129 0 -198 -40t-69 -144z" />
<glyph unicode="9" horiz-adv-x="1763" d="M86 1024q0 98 29.5 183t86 147.5t136.5 98.5t178 36h485q156 0 282 -47t213 -141.5t134 -237.5t47 -334q0 -190 -47 -328.5t-134 -227.5t-213 -131t-282 -42h-747v260h747q168 0 270.5 76t133.5 250h-889q-203 0 -316.5 103.5t-113.5 334.5zM350 1010q0 -106 55.5 -156.5 t153.5 -50.5h856q-14 221 -118.5 322.5t-295.5 101.5h-442q-98 0 -153.5 -56.5t-55.5 -160.5z" />
<glyph unicode=":" horiz-adv-x="536" d="M129 123q0 59 39 99t98 40t100.5 -40t41.5 -99t-41 -99t-101 -40q-59 0 -98 39.5t-39 99.5zM129 795q0 59 39 100t98 41t100.5 -41t41.5 -100t-41 -98.5t-101 -39.5q-59 0 -98 39t-39 99z" />
<glyph unicode=";" horiz-adv-x="536" d="M131 797q0 61 39 100t98 39q61 0 100.5 -39t39.5 -100q0 -59 -39.5 -99.5t-100.5 -40.5q-59 0 -98 40t-39 100zM139 -242v533h262l-102 -533h-160z" />
<glyph unicode="&#x3c;" horiz-adv-x="1413" d="M129 758q0 29 18.5 55.5t51.5 40.5l1085 455v-187l-934 -364l934 -369v-184l-1085 457q-33 14 -51.5 37.5t-18.5 58.5z" />
<glyph unicode="=" horiz-adv-x="1413" d="M129 393v172h1155v-172h-1155zM129 946v172h1155v-172h-1155z" />
<glyph unicode="&#x3e;" horiz-adv-x="1413" d="M129 205v184l934 369l-934 364v187l1085 -455q33 -14 51.5 -41t18.5 -55q0 -35 -18.5 -58.5t-51.5 -37.5z" />
<glyph unicode="?" horiz-adv-x="1589" d="M90 1229v260h983q111 0 196 -32t142 -87t87 -132t30 -167q0 -92 -31 -170t-89 -134t-142 -88t-189 -32h-506q-96 0 -96 -86v-82h-246v88q0 137 84 218t258 81h502q86 0 137.5 47.5t51.5 133.5t-50.5 134t-138.5 48h-983zM217 125q0 59 40 98t99 39q61 0 100.5 -39 t39.5 -98q0 -63 -39.5 -102t-100.5 -39q-59 0 -99 38.5t-40 102.5z" />
<glyph unicode="@" horiz-adv-x="1705" d="M86 727q0 162 57.5 301t157.5 241.5t237.5 160t297.5 57.5h741v-1088h-774q-66 0 -120 27t-92 73t-59.5 108.5t-21.5 133.5q0 70 20.5 131.5t59.5 107.5t92 71.5t121 25.5h401v-514h178v733h-546q-129 0 -231.5 -41t-175.5 -113.5t-110.5 -174t-37.5 -224.5t37.5 -224 t109.5 -175t175.5 -115t232.5 -41h741v-188h-741q-164 0 -301.5 52t-236.5 147.5t-155.5 229.5t-56.5 298zM684 745q0 -78 46 -130t120 -52h184v367h-184q-78 0 -122 -49.5t-44 -135.5z" />
<glyph unicode="A" d="M29 0l856 1425q23 39 53.5 61.5t73.5 22.5t72.5 -22.5t52.5 -61.5l858 -1425h-314l-223 375h-704l123 211h456l-332 557l-675 -1143h-297z" />
<glyph unicode="B" horiz-adv-x="1824" d="M127 0v1489h1090q109 0 197.5 -24.5t152 -73t98.5 -121t35 -166.5q0 -72 -16.5 -125t-45 -91t-66.5 -63.5t-79 -38.5q102 -33 167.5 -118.5t65.5 -216.5q0 -102 -33.5 -185.5t-96 -143t-151.5 -91t-198 -31.5h-1120zM387 258h754q70 0 129 10.5t102 34t66.5 60t23.5 92.5 q0 92 -57 142t-168 50h-662v219h644q111 0 164 41t53 140q0 59 -22.5 95t-64.5 55.5t-100.5 25.5t-130.5 6h-731v-971z" />
<glyph unicode="C" horiz-adv-x="1697" d="M86 760q0 164 54.5 299t151.5 230t229 147.5t288 52.5h807v-260h-807q-100 0 -185 -36t-146.5 -99.5t-96.5 -151.5t-35 -194q0 -104 35 -194.5t96.5 -155t146.5 -101.5t185 -37h807v-260h-807q-156 0 -288 58.5t-229 159.5t-151.5 240.5t-54.5 301.5z" />
<glyph unicode="D" horiz-adv-x="1800" d="M129 0v1489h862q158 0 291 -53.5t229.5 -149.5t150.5 -230t54 -296t-54 -301.5t-150.5 -240.5t-229.5 -159.5t-291 -58.5h-862zM387 260h604q100 0 185.5 37t147.5 101.5t97 154.5t35 195q0 104 -35 193t-97 152.5t-147 99.5t-186 36h-604v-969z" />
<glyph unicode="E" horiz-adv-x="1554" d="M129 0v1489h1329v-260h-1071v-969h1073v-260h-1331zM578 647v219h825v-219h-825z" />
<glyph unicode="F" horiz-adv-x="1443" d="M129 0v1489h1264v-260h-1006v-1229h-258zM578 616v228h753v-228h-753z" />
<glyph unicode="G" horiz-adv-x="1818" d="M86 760q0 164 54.5 299t151.5 230t229 147.5t288 52.5h807v-260h-807q-100 0 -185 -36t-146.5 -99.5t-96.5 -151.5t-35 -194q0 -104 35 -194.5t96.5 -155t146.5 -101.5t185 -37h637v387h-672v219h934v-866h-899q-156 0 -288 58.5t-229 159.5t-151.5 240.5t-54.5 301.5z " />
<glyph unicode="H" horiz-adv-x="1716" d="M129 -6v1495h260v-1495h-260zM578 641v231h749v617h260v-1495h-260v647h-749z" />
<glyph unicode="I" horiz-adv-x="546" d="M143 0v1489h260v-1489h-260z" />
<glyph unicode="J" horiz-adv-x="1449" d="M49 0v260h545q260 0 374.5 100.5t114.5 317.5v811h260v-811q0 -346 -180 -512t-569 -166h-545z" />
<glyph unicode="K" horiz-adv-x="1792" d="M129 0v1489h260v-1489h-260zM469 764q0 35 12.5 61.5t53.5 57.5l788 606h399l-974 -727l1005 -762h-397l-834 655q-35 27 -44 52.5t-9 56.5z" />
<glyph unicode="L" horiz-adv-x="1447" d="M129 0v1489h260v-1229h1002v-260h-1262z" />
<glyph unicode="M" horiz-adv-x="2283" d="M49 0l383 1401q27 106 129 106q41 0 77 -22.5t54 -65.5l459 -1052l459 1052q37 88 125 88q94 0 125 -106l381 -1401h-259l-284 1047l-422 -969q-23 -47 -54.5 -72.5t-78.5 -25.5q-92 0 -133 98l-420 969l-285 -1047h-256z" />
<glyph unicode="N" horiz-adv-x="1787" d="M123 0v1352q0 72 36 113.5t97 41.5q29 0 55.5 -12t55.5 -41l1050 -1042v1089h248v-1364q0 -74 -36 -114.5t-93 -40.5q-63 0 -119 55l-1046 1053v-1090h-248z" />
<glyph unicode="O" horiz-adv-x="1982" d="M86 760q0 164 54.5 299t151.5 230t229 147.5t288 52.5h362q162 0 296.5 -53.5t230.5 -149.5t149.5 -230t53.5 -296t-54.5 -301.5t-152 -240.5t-230.5 -159.5t-293 -58.5h-362q-156 0 -288 58.5t-229 159.5t-151.5 240.5t-54.5 301.5zM346 748q0 -104 35 -194.5t96.5 -155 t146.5 -101.5t185 -37h362q102 0 188.5 37t149 101.5t97 154.5t34.5 195q0 104 -34.5 193t-97 152.5t-148.5 99.5t-189 36h-362q-100 0 -185 -36t-146.5 -99.5t-96.5 -151.5t-35 -194z" />
<glyph unicode="P" horiz-adv-x="1775" d="M129 0v1489h1047q129 0 230 -38t171 -106.5t106.5 -167t36.5 -221.5q0 -121 -36.5 -220t-106.5 -170.5t-171 -111.5t-230 -40h-598v252h598q137 0 213.5 77.5t76.5 204.5q0 129 -76.5 205t-213.5 76h-789v-1229h-258z" />
<glyph unicode="Q" horiz-adv-x="1982" d="M86 760q0 164 54.5 299t151.5 230t229 147.5t288 52.5h362q162 0 296.5 -53.5t230.5 -149.5t149.5 -230t53.5 -296q0 -164 -54.5 -302.5t-152.5 -240.5l280 -217h-346l-102 88q-78 -41 -167 -64.5t-188 -23.5h-362q-156 0 -288 58.5t-229 159.5t-151.5 240.5t-54.5 301.5 zM346 748q0 -104 35 -194.5t96.5 -155t146.5 -101.5t185 -37h362q63 0 129 16l-430 338h344l277 -233q70 66 109.5 160t39.5 207q0 104 -34.5 193t-97 152.5t-148.5 99.5t-189 36h-362q-100 0 -185 -36t-146.5 -99.5t-96.5 -151.5t-35 -194z" />
<glyph unicode="R" horiz-adv-x="1886" d="M129 0v1489h1069q127 0 227.5 -38t170 -108.5t106.5 -171t37 -225.5q0 -186 -81 -312t-226 -181l448 -453h-369l-376 414h-557v229h620q141 0 213 77t72 222t-75 216t-210 71h-811v-1229h-258z" />
<glyph unicode="S" horiz-adv-x="1802" d="M106 1071q0 90 30 167t88.5 132t144.5 87t196 32h1069v-260h-1069q-90 0 -139 -48t-49 -134t50 -133.5t136 -47.5h682q227 0 345 -106.5t118 -323.5q0 -94 -28.5 -174t-86 -138t-144.5 -91t-204 -33h-1116v260h1116q104 0 160.5 53.5t56.5 141.5q0 96 -56 144t-161 48 h-684q-104 0 -189 32t-143.5 88t-90.5 134t-32 170z" />
<glyph unicode="T" horiz-adv-x="1474" d="M41 1229v260h1391v-260h-566v-1229h-260v1229h-565z" />
<glyph unicode="U" horiz-adv-x="1820" d="M106 657v832h269v-832q0 -113 27.5 -192.5t90 -130.5t167 -74.5t258.5 -23.5t258 23.5t166.5 74.5t90 131t27.5 192v832h254v-832q0 -172 -45 -300t-141 -212t-249 -124.5t-370 -40.5q-215 0 -367.5 40.5t-248.5 124.5t-141.5 212t-45.5 300z" />
<glyph unicode="V" d="M29 1489h317l676 -1147l674 1147h299l-858 -1426q-23 -39 -53.5 -61t-71.5 -22q-43 0 -74 22.5t-53 60.5z" />
<glyph unicode="W" horiz-adv-x="2596" d="M29 1489h311l602 -1145l225 406l-387 739h314l575 -1145l606 1145h291l-770 -1428q-23 -41 -58.5 -61t-76.5 -20t-76 20t-57 61l-230 437l-231 -437q-23 -41 -57.5 -61t-75.5 -20q-90 0 -135 81z" />
<glyph unicode="X" horiz-adv-x="2048" d="M45 0l799 774l-742 715h359l567 -551l559 551h338l-741 -715l807 -774h-365l-625 608l-618 -608h-338z" />
<glyph unicode="Y" horiz-adv-x="1896" d="M27 1489h350l579 -686l582 686h332l-793 -924v-565h-260v565z" />
<glyph unicode="Z" horiz-adv-x="1642" d="M82 133q0 57 53 111l989 997h-1024v248h1303q57 0 102 -34t45 -99q0 -57 -53 -111l-989 -997h1036v-248h-1315q-59 0 -103 34t-44 99z" />
<glyph unicode="[" horiz-adv-x="681" d="M203 -182v1874h350v-170h-180v-1538h180v-166h-350z" />
<glyph unicode="\" horiz-adv-x="911" d="M20 1489h173l698 -1489h-180z" />
<glyph unicode="]" horiz-adv-x="681" d="M129 -16h178v1538h-178v170h350v-1874h-350v166z" />
<glyph unicode="^" horiz-adv-x="1144" d="M129 614l350 824q14 33 37 51t57 18q31 0 57.5 -18.5t41.5 -50.5l344 -824h-176l-267 674l-270 -674h-174z" />
<glyph unicode="_" horiz-adv-x="1368" d="M0 -209h1384v-121h-1384v121z" />
<glyph unicode="`" horiz-adv-x="741" d="M109 1694v161l524 -157v-117z" />
<glyph unicode="a" d="M29 0l856 1425q23 39 53.5 61.5t73.5 22.5t72.5 -22.5t52.5 -61.5l858 -1425h-314l-223 375h-704l123 211h456l-332 557l-675 -1143h-297z" />
<glyph unicode="b" horiz-adv-x="1824" d="M127 0v1489h1090q109 0 197.5 -24.5t152 -73t98.5 -121t35 -166.5q0 -72 -16.5 -125t-45 -91t-66.5 -63.5t-79 -38.5q102 -33 167.5 -118.5t65.5 -216.5q0 -102 -33.5 -185.5t-96 -143t-151.5 -91t-198 -31.5h-1120zM387 258h754q70 0 129 10.5t102 34t66.5 60t23.5 92.5 q0 92 -57 142t-168 50h-662v219h644q111 0 164 41t53 140q0 59 -22.5 95t-64.5 55.5t-100.5 25.5t-130.5 6h-731v-971z" />
<glyph unicode="c" horiz-adv-x="1697" d="M86 760q0 164 54.5 299t151.5 230t229 147.5t288 52.5h807v-260h-807q-100 0 -185 -36t-146.5 -99.5t-96.5 -151.5t-35 -194q0 -104 35 -194.5t96.5 -155t146.5 -101.5t185 -37h807v-260h-807q-156 0 -288 58.5t-229 159.5t-151.5 240.5t-54.5 301.5z" />
<glyph unicode="d" horiz-adv-x="1800" d="M129 0v1489h862q158 0 291 -53.5t229.5 -149.5t150.5 -230t54 -296t-54 -301.5t-150.5 -240.5t-229.5 -159.5t-291 -58.5h-862zM387 260h604q100 0 185.5 37t147.5 101.5t97 154.5t35 195q0 104 -35 193t-97 152.5t-147 99.5t-186 36h-604v-969z" />
<glyph unicode="e" horiz-adv-x="1554" d="M129 0v1489h1329v-260h-1071v-969h1073v-260h-1331zM578 647v219h825v-219h-825z" />
<glyph unicode="f" horiz-adv-x="1443" d="M129 0v1489h1264v-260h-1006v-1229h-258zM578 616v228h753v-228h-753z" />
<glyph unicode="g" horiz-adv-x="1818" d="M86 760q0 164 54.5 299t151.5 230t229 147.5t288 52.5h807v-260h-807q-100 0 -185 -36t-146.5 -99.5t-96.5 -151.5t-35 -194q0 -104 35 -194.5t96.5 -155t146.5 -101.5t185 -37h637v387h-672v219h934v-866h-899q-156 0 -288 58.5t-229 159.5t-151.5 240.5t-54.5 301.5z " />
<glyph unicode="h" horiz-adv-x="1716" d="M129 -6v1495h260v-1495h-260zM578 641v231h749v617h260v-1495h-260v647h-749z" />
<glyph unicode="i" horiz-adv-x="546" d="M143 0v1489h260v-1489h-260z" />
<glyph unicode="j" horiz-adv-x="1449" d="M49 0v260h545q260 0 374.5 100.5t114.5 317.5v811h260v-811q0 -346 -180 -512t-569 -166h-545z" />
<glyph unicode="k" horiz-adv-x="1792" d="M129 0v1489h260v-1489h-260zM469 764q0 35 12.5 61.5t53.5 57.5l788 606h399l-974 -727l1005 -762h-397l-834 655q-35 27 -44 52.5t-9 56.5z" />
<glyph unicode="l" horiz-adv-x="1447" d="M129 0v1489h260v-1229h1002v-260h-1262z" />
<glyph unicode="m" horiz-adv-x="2283" d="M49 0l383 1401q27 106 129 106q41 0 77 -22.5t54 -65.5l459 -1052l459 1052q37 88 125 88q94 0 125 -106l381 -1401h-259l-284 1047l-422 -969q-23 -47 -54.5 -72.5t-78.5 -25.5q-92 0 -133 98l-420 969l-285 -1047h-256z" />
<glyph unicode="n" horiz-adv-x="1787" d="M123 0v1352q0 72 36 113.5t97 41.5q29 0 55.5 -12t55.5 -41l1050 -1042v1089h248v-1364q0 -74 -36 -114.5t-93 -40.5q-63 0 -119 55l-1046 1053v-1090h-248z" />
<glyph unicode="o" horiz-adv-x="1982" d="M86 760q0 164 54.5 299t151.5 230t229 147.5t288 52.5h362q162 0 296.5 -53.5t230.5 -149.5t149.5 -230t53.5 -296t-54.5 -301.5t-152 -240.5t-230.5 -159.5t-293 -58.5h-362q-156 0 -288 58.5t-229 159.5t-151.5 240.5t-54.5 301.5zM346 748q0 -104 35 -194.5t96.5 -155 t146.5 -101.5t185 -37h362q102 0 188.5 37t149 101.5t97 154.5t34.5 195q0 104 -34.5 193t-97 152.5t-148.5 99.5t-189 36h-362q-100 0 -185 -36t-146.5 -99.5t-96.5 -151.5t-35 -194z" />
<glyph unicode="p" horiz-adv-x="1775" d="M129 0v1489h1047q129 0 230 -38t171 -106.5t106.5 -167t36.5 -221.5q0 -121 -36.5 -220t-106.5 -170.5t-171 -111.5t-230 -40h-598v252h598q137 0 213.5 77.5t76.5 204.5q0 129 -76.5 205t-213.5 76h-789v-1229h-258z" />
<glyph unicode="q" horiz-adv-x="1982" d="M86 760q0 164 54.5 299t151.5 230t229 147.5t288 52.5h362q162 0 296.5 -53.5t230.5 -149.5t149.5 -230t53.5 -296q0 -164 -54.5 -302.5t-152.5 -240.5l280 -217h-346l-102 88q-78 -41 -167 -64.5t-188 -23.5h-362q-156 0 -288 58.5t-229 159.5t-151.5 240.5t-54.5 301.5 zM346 748q0 -104 35 -194.5t96.5 -155t146.5 -101.5t185 -37h362q63 0 129 16l-430 338h344l277 -233q70 66 109.5 160t39.5 207q0 104 -34.5 193t-97 152.5t-148.5 99.5t-189 36h-362q-100 0 -185 -36t-146.5 -99.5t-96.5 -151.5t-35 -194z" />
<glyph unicode="r" horiz-adv-x="1886" d="M129 0v1489h1069q127 0 227.5 -38t170 -108.5t106.5 -171t37 -225.5q0 -186 -81 -312t-226 -181l448 -453h-369l-376 414h-557v229h620q141 0 213 77t72 222t-75 216t-210 71h-811v-1229h-258z" />
<glyph unicode="s" horiz-adv-x="1802" d="M106 1071q0 90 30 167t88.5 132t144.5 87t196 32h1069v-260h-1069q-90 0 -139 -48t-49 -134t50 -133.5t136 -47.5h682q227 0 345 -106.5t118 -323.5q0 -94 -28.5 -174t-86 -138t-144.5 -91t-204 -33h-1116v260h1116q104 0 160.5 53.5t56.5 141.5q0 96 -56 144t-161 48 h-684q-104 0 -189 32t-143.5 88t-90.5 134t-32 170z" />
<glyph unicode="t" horiz-adv-x="1474" d="M41 1229v260h1391v-260h-566v-1229h-260v1229h-565z" />
<glyph unicode="u" horiz-adv-x="1820" d="M106 657v832h269v-832q0 -113 27.5 -192.5t90 -130.5t167 -74.5t258.5 -23.5t258 23.5t166.5 74.5t90 131t27.5 192v832h254v-832q0 -172 -45 -300t-141 -212t-249 -124.5t-370 -40.5q-215 0 -367.5 40.5t-248.5 124.5t-141.5 212t-45.5 300z" />
<glyph unicode="v" d="M29 1489h317l676 -1147l674 1147h299l-858 -1426q-23 -39 -53.5 -61t-71.5 -22q-43 0 -74 22.5t-53 60.5z" />
<glyph unicode="w" horiz-adv-x="2596" d="M29 1489h311l602 -1145l225 406l-387 739h314l575 -1145l606 1145h291l-770 -1428q-23 -41 -58.5 -61t-76.5 -20t-76 20t-57 61l-230 437l-231 -437q-23 -41 -57.5 -61t-75.5 -20q-90 0 -135 81z" />
<glyph unicode="x" horiz-adv-x="2048" d="M45 0l799 774l-742 715h359l567 -551l559 551h338l-741 -715l807 -774h-365l-625 608l-618 -608h-338z" />
<glyph unicode="y" horiz-adv-x="1896" d="M27 1489h350l579 -686l582 686h332l-793 -924v-565h-260v565z" />
<glyph unicode="z" horiz-adv-x="1642" d="M82 133q0 57 53 111l989 997h-1024v248h1303q57 0 102 -34t45 -99q0 -57 -53 -111l-989 -997h1036v-248h-1315q-59 0 -103 34t-44 99z" />
<glyph unicode="{" horiz-adv-x="690" d="M127 680v141q59 2 81.5 14.5t22.5 36.5v576q0 117 63.5 180.5t170.5 63.5h94v-144q-90 0 -124 -40t-34 -95v-495q0 -70 -17 -111t-62 -57q49 -20 64 -59.5t15 -106.5v-492q0 -82 42 -106.5t116 -24.5v-143h-94q-106 0 -170 62.5t-64 176.5v570q0 27 -22.5 39t-81.5 14z " />
<glyph unicode="|" horiz-adv-x="608" d="M227 -182v1874h154v-1874h-154z" />
<glyph unicode="}" horiz-adv-x="690" d="M127 -39q74 0 116 24.5t42 106.5v492q0 68 15 106.5t65 59.5q-45 16 -62.5 57t-17.5 111v495q0 55 -34 95t-124 40v144h94q106 0 170 -63.5t64 -180.5v-576q0 -25 22.5 -37t81.5 -14v-141q-59 -2 -81.5 -14.5t-22.5 -38.5v-570q0 -115 -63.5 -177t-170.5 -62h-94v143z " />
<glyph unicode="~" horiz-adv-x="1415" d="M131 621v188q55 53 131 81t164 28q74 0 143.5 -22t137 -48.5t137 -48t145.5 -21.5q88 0 170 38t127 83v-190q-59 -55 -136 -80t-161 -25q-74 0 -142.5 21.5t-137 48t-138 48t-145.5 21.5q-84 0 -165 -34.5t-130 -87.5z" />
<glyph unicode="&#xa1;" horiz-adv-x="610" d="M169 1368q0 63 39.5 102t100.5 39q59 0 99 -38.5t40 -102.5q0 -59 -40 -98t-99 -39q-61 0 -100.5 39t-39.5 98zM190 0v1012h246v-1012h-246z" />
<glyph unicode="&#xa2;" horiz-adv-x="1417" d="M86 756q0 133 43 241.5t121 185.5t184.5 118.5t233.5 41.5h147v146h115v-146h385v-210h-385v-775h385v-213h-385v-145h-115v145h-147q-127 0 -233.5 46.5t-184.5 128t-121 193.5t-43 243zM295 745q0 -84 27.5 -154.5t78 -122.5t119 -81t148.5 -29h147v775h-147 q-80 0 -148.5 -29t-119 -79t-78 -122t-27.5 -158z" />
<glyph unicode="&#xa3;" horiz-adv-x="1452" d="M59 0v260h183v410h-103v192h103v187q0 94 27.5 175t84 139t142.5 92t202 34h453v-260h-414q-117 0 -183.5 -51.5t-66.5 -161.5v-154h414v-192h-414v-410h883v-260h-1311z" />
<glyph unicode="&#xa5;" horiz-adv-x="1611" d="M39 1489h311l459 -715l444 715h306l-529 -805h332v-176h-434v-180h434v-176h-434v-152h-246v152h-422v176h422v180h-422v176h318z" />
<glyph unicode="&#xa6;" horiz-adv-x="608" d="M227 -182v815h154v-815h-154zM227 860v832h154v-832h-154z" />
<glyph unicode="&#xa7;" horiz-adv-x="1583" d="M100 1096q0 82 28 153.5t82 124.5t133 84t181 31h774v-248h-731q-92 0 -156.5 -43t-64.5 -135q0 -78 47 -127t129 -49h504q188 0 276.5 -86t88.5 -230q0 -86 -32 -151.5t-91 -104.5q88 -41 142 -127t54 -200q0 -84 -27.5 -158t-82 -127t-133 -84t-183.5 -31h-776v248h733 q90 0 154.5 43t64.5 135q0 78 -46 127t-130 49h-501q-188 0 -276.5 86t-88.5 228q0 86 29.5 152.5t91.5 103.5q-90 43 -141.5 132t-51.5 204zM397 543q0 -74 45 -118t136 -44h417q86 0 127 44t41 110q0 74 -45 117.5t-133 43.5h-420q-86 0 -127 -44t-41 -109z" />
<glyph unicode="&#xa8;" horiz-adv-x="804" d="M109 1737q0 43 29.5 67.5t76.5 24.5q43 0 72.5 -24.5t29.5 -67.5t-29.5 -67.5t-72.5 -24.5q-47 0 -76.5 24.5t-29.5 67.5zM487 1737q0 43 30 67.5t75 24.5t74.5 -24.5t29.5 -67.5t-29.5 -67.5t-74.5 -24.5t-75 24.5t-30 67.5z" />
<glyph unicode="&#xaa;" horiz-adv-x="1236" d="M78 614l471 785q12 23 28.5 34t40.5 11q41 0 68 -45l473 -785h-172l-123 207h-389l68 115h252l-183 307l-372 -629h-162z" />
<glyph unicode="&#xab;" horiz-adv-x="1288" d="M86 760q0 33 35 55l547 328v-129l-447 -256l447 -258v-121l-547 330q-35 23 -35 51zM621 760q0 33 34 55l549 328v-129l-446 -256l446 -258v-121l-549 330q-35 20 -34 51z" />
<glyph unicode="&#xad;" horiz-adv-x="606" d="M59 670v174h492v-174h-492z" />
<glyph unicode="&#xaf;" horiz-adv-x="741" d="M109 1663v119h524v-119h-524z" />
<glyph unicode="&#xb0;" horiz-adv-x="739" d="M86 1225q0 283 281 282q286 1 286 -282q0 -281 -286 -281q-281 0 -281 281zM199 1225q0 -164 168 -164q170 0 170 162q0 168 -170 168q-84 0 -126 -40t-42 -126z" />
<glyph unicode="&#xb1;" horiz-adv-x="1413" d="M129 68h1155v-172h-1155v172zM129 672v172h492v491h174v-491h489v-172h-489v-494h-174v494h-492z" />
<glyph unicode="&#xb2;" horiz-adv-x="905" d="M94 768v217q0 215 230 215h270q41 0 67.5 24.5t26.5 65.5q0 43 -25.5 67.5t-68.5 24.5h-494v129h494q111 0 169 -58.5t58 -150.5t-60.5 -151.5t-166.5 -59.5h-270q-106 0 -107 -96v-98h592v-129h-715z" />
<glyph unicode="&#xb3;" horiz-adv-x="907" d="M78 768v129h477q61 0 100 25.5t39 72.5q0 96 -112 96h-328v109h319q109 0 109 90q0 53 -35 72.5t-100 19.5h-467v129h493q109 0 174.5 -48t65.5 -145q0 -72 -30.5 -108.5t-71.5 -48.5q51 -16 83.5 -59.5t32.5 -108.5q0 -102 -64.5 -163.5t-174.5 -61.5h-510z" />
<glyph unicode="&#xb4;" horiz-adv-x="741" d="M109 1581v117l524 157v-161z" />
<glyph unicode="&#xb6;" horiz-adv-x="1288" d="M92 1153q0 154 90 245t252 91h725v-1696h-162v1532h-260v-1532h-164v1018h-139q-162 0 -252 94t-90 248z" />
<glyph unicode="&#xb7;" horiz-adv-x="536" d="M129 737q0 59 39 99.5t98 40.5t100.5 -40.5t41.5 -99.5t-41 -99t-101 -40q-59 0 -98 40t-39 99z" />
<glyph unicode="&#xb8;" horiz-adv-x="448" d="M88 -96h272l-137 -316z" />
<glyph unicode="&#xb9;" horiz-adv-x="454" d="M55 1382v129h72q113 0 173 -63.5t60 -180.5v-499h-129v499q0 115 -104 115h-72z" />
<glyph unicode="&#xba;" horiz-adv-x="1212" d="M109 1032q0 90 29.5 165t82.5 127t126 81t159 29h201q88 0 161.5 -30t126 -82t82 -127t29.5 -163q0 -90 -29.5 -165.5t-83 -132t-127 -88.5t-159.5 -32h-201q-86 0 -159 32t-126 88.5t-82.5 132t-29.5 165.5zM252 1026q0 -59 18.5 -108.5t52 -84t81 -55t102.5 -20.5h201 q55 0 103 20.5t82 55t53.5 84t19.5 108.5q0 57 -19.5 105.5t-53.5 84t-82 55t-103 19.5h-201q-55 0 -101.5 -19.5t-80 -54t-53 -84t-19.5 -106.5z" />
<glyph unicode="&#xbb;" horiz-adv-x="1288" d="M86 379v121l446 258l-446 256v129l549 -328q35 -20 35 -55q0 -31 -35 -51zM621 379v121l446 258l-446 256v129l546 -328q37 -23 37 -55q0 -31 -37 -51z" />
<glyph unicode="&#xbc;" horiz-adv-x="1990" d="M86 -137l1345 1716h174l-1341 -1716h-178zM256 1382v129h72q113 0 173 -63.5t60 -180.5v-499h-129v499q0 115 -104 115h-72zM1114 416v307h129v-305q0 -66 27.5 -90.5t87.5 -24.5h309v420h129v-420h108v-125h-108v-198h-129v198h-309q-117 0 -180.5 57.5t-63.5 180.5z " />
<glyph unicode="&#xbd;" horiz-adv-x="1941" d="M86 -137l1345 1716h174l-1341 -1716h-178zM256 1382v129h72q113 0 173 -63.5t60 -180.5v-499h-129v499q0 115 -104 115h-72zM1128 -20v217q0 215 230 215h270q41 0 67.5 24.5t26.5 65.5q0 43 -25.5 67.5t-68.5 24.5h-494v129h494q111 0 169 -58.5t58 -150.5t-60.5 -151.5 t-166.5 -59.5h-270q-106 0 -107 -96v-98h592v-129h-715z" />
<glyph unicode="&#xbe;" horiz-adv-x="2107" d="M86 768v129h477q61 0 100 25.5t39 72.5q0 96 -112 96h-328v109h319q109 0 109 90q0 53 -35 72.5t-100 19.5h-467v129h493q109 0 174.5 -48t65.5 -145q0 -72 -30.5 -108.5t-71.5 -48.5q51 -16 83.5 -59.5t32.5 -108.5q0 -102 -64.5 -163.5t-174.5 -61.5h-510zM203 -137 l1345 1716h174l-1341 -1716h-178zM1231 416v307h129v-305q0 -66 27.5 -90.5t87.5 -24.5h309v420h129v-420h108v-125h-108v-198h-129v198h-309q-117 0 -180.5 57.5t-63.5 180.5z" />
<glyph unicode="&#xbf;" horiz-adv-x="1589" d="M57 418q0 92 31 170t89 134t142 88t189 32h506q96 0 96 86v82h246v-88q0 -137 -84 -218t-258 -81h-502q-86 0 -137.5 -47.5t-51.5 -133.5t50.5 -134t138.5 -48h983v-260h-983q-111 0 -196 32t-142 87t-87 132t-30 167zM1089 1364q0 63 39.5 102t100.5 39q59 0 99 -38.5 t40 -102.5q0 -59 -40 -98t-99 -39q-61 0 -100.5 39t-39.5 98z" />
<glyph unicode="&#xc0;" d="M29 0l856 1425q23 39 53.5 61.5t73.5 22.5t72.5 -22.5t52.5 -61.5l858 -1425h-314l-223 375h-704l123 211h456l-332 557l-675 -1143h-297zM689 1694v161l524 -157v-117z" />
<glyph unicode="&#xc1;" d="M29 0l856 1425q23 39 53.5 61.5t73.5 22.5t72.5 -22.5t52.5 -61.5l858 -1425h-314l-223 375h-704l123 211h456l-332 557l-675 -1143h-297zM811 1581v117l524 157v-161z" />
<glyph unicode="&#xc2;" d="M29 0l856 1425q23 39 53.5 61.5t73.5 22.5t72.5 -22.5t52.5 -61.5l858 -1425h-314l-223 375h-704l123 211h456l-332 557l-675 -1143h-297zM734 1581l186 274h186l187 -274h-144l-129 199h-16l-129 -199h-141z" />
<glyph unicode="&#xc3;" d="M29 0l856 1425q23 39 53.5 61.5t73.5 22.5t72.5 -22.5t52.5 -61.5l858 -1425h-314l-223 375h-704l123 211h456l-332 557l-675 -1143h-297zM750 1634v121q23 29 57.5 45.5t75.5 16.5q35 0 66.5 -13.5t62 -29t61.5 -27.5t66 -12q41 0 77.5 22.5t57.5 50.5v-122 q-47 -59 -135 -60q-35 0 -66 12.5t-61.5 27.5t-62.5 27.5t-66 12.5q-41 0 -78 -21.5t-55 -50.5z" />
<glyph unicode="&#xc4;" d="M29 0l856 1425q23 39 53.5 61.5t73.5 22.5t72.5 -22.5t52.5 -61.5l858 -1425h-314l-223 375h-704l123 211h456l-332 557l-675 -1143h-297zM719 1737q0 43 29.5 67.5t76.5 24.5q43 0 72.5 -24.5t29.5 -67.5t-29.5 -67.5t-72.5 -24.5q-47 0 -76.5 24.5t-29.5 67.5z M1097 1737q0 43 30 67.5t75 24.5t74.5 -24.5t29.5 -67.5t-29.5 -67.5t-74.5 -24.5t-75 24.5t-30 67.5z" />
<glyph unicode="&#xc5;" d="M29 0l856 1425q23 39 53.5 61.5t73.5 22.5t72.5 -22.5t52.5 -61.5l858 -1425h-314l-223 375h-704l123 211h456l-332 557l-675 -1143h-297zM750 1792q0 92 58 148.5t150 56.5h105q92 0 151.5 -56.5t59.5 -148.5q0 -90 -59.5 -150.5t-151.5 -60.5h-105q-92 0 -150 60.5 t-58 150.5zM827 1790q0 -57 36 -95t95 -38h105q59 0 96 38t37 95t-37 93t-96 36h-105q-57 0 -94 -36t-37 -93z" />
<glyph unicode="&#xc6;" horiz-adv-x="2754" d="M29 0l815 1401q25 41 55.5 64.5t73.5 23.5h1683v-260h-985v-969h989v-260h-1247v362h-676l127 216h549v651h-391l-700 -1229h-293zM1862 647v219h739v-219h-739z" />
<glyph unicode="&#xc7;" horiz-adv-x="1697" d="M86 760q0 164 54.5 299t151.5 230t229 147.5t288 52.5h807v-260h-807q-100 0 -185 -36t-146.5 -99.5t-96.5 -151.5t-35 -194q0 -104 35 -194.5t96.5 -155t146.5 -101.5t185 -37h807v-260h-807q-156 0 -288 58.5t-229 159.5t-151.5 240.5t-54.5 301.5zM754 -96h272 l-137 -316z" />
<glyph unicode="&#xc8;" horiz-adv-x="1554" d="M129 0v1489h1329v-260h-1071v-969h1073v-260h-1331zM453 1694v161l524 -157v-117zM578 647v219h825v-219h-825z" />
<glyph unicode="&#xc9;" horiz-adv-x="1554" d="M129 0v1489h1329v-260h-1071v-969h1073v-260h-1331zM576 1581v117l524 157v-161zM578 647v219h825v-219h-825z" />
<glyph unicode="&#xca;" horiz-adv-x="1554" d="M129 0v1489h1329v-260h-1071v-969h1073v-260h-1331zM498 1581l186 274h186l187 -274h-144l-129 199h-16l-129 -199h-141zM578 647v219h825v-219h-825z" />
<glyph unicode="&#xcb;" horiz-adv-x="1554" d="M129 0v1489h1329v-260h-1071v-969h1073v-260h-1331zM484 1737q0 43 29.5 67.5t76.5 24.5q43 0 72.5 -24.5t29.5 -67.5t-29.5 -67.5t-72.5 -24.5q-47 0 -76.5 24.5t-29.5 67.5zM578 647v219h825v-219h-825zM862 1737q0 43 30 67.5t75 24.5t74.5 -24.5t29.5 -67.5 t-29.5 -67.5t-74.5 -24.5t-75 24.5t-30 67.5z" />
<glyph unicode="&#xcc;" horiz-adv-x="546" d="M-47 1694v161l524 -157v-117zM143 0v1489h260v-1489h-260z" />
<glyph unicode="&#xcd;" horiz-adv-x="546" d="M76 1581v117l524 157v-161zM143 0v1489h260v-1489h-260z" />
<glyph unicode="&#xce;" horiz-adv-x="546" d="M-4 1581l186 274h186l187 -274h-144l-129 199h-16l-129 -199h-141zM143 0v1489h260v-1489h-260z" />
<glyph unicode="&#xcf;" horiz-adv-x="546" d="M-18 1737q0 43 29.5 67.5t76.5 24.5q43 0 72.5 -24.5t29.5 -67.5t-29.5 -67.5t-72.5 -24.5q-47 0 -76.5 24.5t-29.5 67.5zM143 0v1489h260v-1489h-260zM360 1737q0 43 30 67.5t75 24.5t74.5 -24.5t29.5 -67.5t-29.5 -67.5t-74.5 -24.5t-75 24.5t-30 67.5z" />
<glyph unicode="&#xd0;" horiz-adv-x="1796" d="M20 647v219h105v623h862q158 0 291 -53.5t230.5 -149.5t151.5 -230t54 -296t-54 -301.5t-151.5 -240.5t-230.5 -159.5t-291 -58.5h-862v647h-105zM383 260h604q100 0 185 37t147.5 101.5t97.5 154.5t35 195q0 104 -35 193t-97.5 152.5t-147.5 99.5t-185 36h-604v-363h586 v-219h-586v-387z" />
<glyph unicode="&#xd1;" horiz-adv-x="1787" d="M123 0v1352q0 72 36 113.5t97 41.5q29 0 55.5 -12t55.5 -41l1050 -1042v1089h248v-1364q0 -74 -36 -114.5t-93 -40.5q-63 0 -119 55l-1046 1053v-1090h-248zM631 1634v121q23 29 57.5 45.5t75.5 16.5q35 0 66.5 -13.5t62 -29t61.5 -27.5t66 -12q41 0 77.5 22.5t57.5 50.5 v-122q-47 -59 -135 -60q-35 0 -66 12.5t-61.5 27.5t-62.5 27.5t-66 12.5q-41 0 -78 -21.5t-55 -50.5z" />
<glyph unicode="&#xd2;" horiz-adv-x="1982" d="M86 760q0 164 54.5 299t151.5 230t229 147.5t288 52.5h362q162 0 296.5 -53.5t230.5 -149.5t149.5 -230t53.5 -296t-54.5 -301.5t-152 -240.5t-230.5 -159.5t-293 -58.5h-362q-156 0 -288 58.5t-229 159.5t-151.5 240.5t-54.5 301.5zM346 748q0 -104 35 -194.5t96.5 -155 t146.5 -101.5t185 -37h362q102 0 188.5 37t149 101.5t97 154.5t34.5 195q0 104 -34.5 193t-97 152.5t-148.5 99.5t-189 36h-362q-100 0 -185 -36t-146.5 -99.5t-96.5 -151.5t-35 -194zM668 1694v161l524 -157v-117z" />
<glyph unicode="&#xd3;" horiz-adv-x="1982" d="M86 760q0 164 54.5 299t151.5 230t229 147.5t288 52.5h362q162 0 296.5 -53.5t230.5 -149.5t149.5 -230t53.5 -296t-54.5 -301.5t-152 -240.5t-230.5 -159.5t-293 -58.5h-362q-156 0 -288 58.5t-229 159.5t-151.5 240.5t-54.5 301.5zM346 748q0 -104 35 -194.5t96.5 -155 t146.5 -101.5t185 -37h362q102 0 188.5 37t149 101.5t97 154.5t34.5 195q0 104 -34.5 193t-97 152.5t-148.5 99.5t-189 36h-362q-100 0 -185 -36t-146.5 -99.5t-96.5 -151.5t-35 -194zM791 1581v117l524 157v-161z" />
<glyph unicode="&#xd4;" horiz-adv-x="1982" d="M86 760q0 164 54.5 299t151.5 230t229 147.5t288 52.5h362q162 0 296.5 -53.5t230.5 -149.5t149.5 -230t53.5 -296t-54.5 -301.5t-152 -240.5t-230.5 -159.5t-293 -58.5h-362q-156 0 -288 58.5t-229 159.5t-151.5 240.5t-54.5 301.5zM346 748q0 -104 35 -194.5t96.5 -155 t146.5 -101.5t185 -37h362q102 0 188.5 37t149 101.5t97 154.5t34.5 195q0 104 -34.5 193t-97 152.5t-148.5 99.5t-189 36h-362q-100 0 -185 -36t-146.5 -99.5t-96.5 -151.5t-35 -194zM711 1581l186 274h186l187 -274h-144l-129 199h-16l-129 -199h-141z" />
<glyph unicode="&#xd5;" horiz-adv-x="1982" d="M86 760q0 164 54.5 299t151.5 230t229 147.5t288 52.5h362q162 0 296.5 -53.5t230.5 -149.5t149.5 -230t53.5 -296t-54.5 -301.5t-152 -240.5t-230.5 -159.5t-293 -58.5h-362q-156 0 -288 58.5t-229 159.5t-151.5 240.5t-54.5 301.5zM346 748q0 -104 35 -194.5t96.5 -155 t146.5 -101.5t185 -37h362q102 0 188.5 37t149 101.5t97 154.5t34.5 195q0 104 -34.5 193t-97 152.5t-148.5 99.5t-189 36h-362q-100 0 -185 -36t-146.5 -99.5t-96.5 -151.5t-35 -194zM730 1634v121q23 29 57.5 45.5t75.5 16.5q35 0 66.5 -13.5t62 -29t61.5 -27.5t66 -12 q41 0 77.5 22.5t57.5 50.5v-122q-47 -59 -135 -60q-35 0 -66 12.5t-61.5 27.5t-62.5 27.5t-66 12.5q-41 0 -78 -21.5t-55 -50.5z" />
<glyph unicode="&#xd6;" horiz-adv-x="1982" d="M86 760q0 164 54.5 299t151.5 230t229 147.5t288 52.5h362q162 0 296.5 -53.5t230.5 -149.5t149.5 -230t53.5 -296t-54.5 -301.5t-152 -240.5t-230.5 -159.5t-293 -58.5h-362q-156 0 -288 58.5t-229 159.5t-151.5 240.5t-54.5 301.5zM346 748q0 -104 35 -194.5t96.5 -155 t146.5 -101.5t185 -37h362q102 0 188.5 37t149 101.5t97 154.5t34.5 195q0 104 -34.5 193t-97 152.5t-148.5 99.5t-189 36h-362q-100 0 -185 -36t-146.5 -99.5t-96.5 -151.5t-35 -194zM697 1737q0 43 29.5 67.5t76.5 24.5q43 0 72.5 -24.5t29.5 -67.5t-29.5 -67.5 t-72.5 -24.5q-47 0 -76.5 24.5t-29.5 67.5zM1075 1737q0 43 30 67.5t75 24.5t74.5 -24.5t29.5 -67.5t-29.5 -67.5t-74.5 -24.5t-75 24.5t-30 67.5z" />
<glyph unicode="&#xd7;" horiz-adv-x="1413" d="M236 410l348 348l-348 346l122 125l349 -348l346 346l121 -123l-347 -346l351 -348l-123 -123l-350 348l-347 -346z" />
<glyph unicode="&#xd8;" horiz-adv-x="1982" d="M86 760q0 164 54.5 299t151.5 230t229 147.5t288 52.5h362q94 0 179.5 -18.5t158.5 -53.5l146 172l78 -67l-134 -156q141 -96 221.5 -252t80.5 -354q0 -162 -54.5 -301.5t-152 -240.5t-230.5 -159.5t-293 -58.5h-362q-86 0 -163 17.5t-146 50.5l-144 -170l-77 67l129 154 q-147 100 -234.5 266t-87.5 375zM346 748q0 -145 62.5 -257t169.5 -172l751 885q-37 10 -77 17.5t-81 7.5h-362q-100 0 -185 -36t-146.5 -99.5t-96.5 -151.5t-35 -194zM678 276q66 -16 131 -16h362q102 0 188.5 37t149 101.5t97 154.5t34.5 195q0 137 -57 243.5t-158 167.5z " />
<glyph unicode="&#xd9;" horiz-adv-x="1820" d="M106 657v832h269v-832q0 -113 27.5 -192.5t90 -130.5t167 -74.5t258.5 -23.5t258 23.5t166.5 74.5t90 131t27.5 192v832h254v-832q0 -172 -45 -300t-141 -212t-249 -124.5t-370 -40.5q-215 0 -367.5 40.5t-248.5 124.5t-141.5 212t-45.5 300zM586 1694v161l524 -157v-117 z" />
<glyph unicode="&#xda;" horiz-adv-x="1820" d="M106 657v832h269v-832q0 -113 27.5 -192.5t90 -130.5t167 -74.5t258.5 -23.5t258 23.5t166.5 74.5t90 131t27.5 192v832h254v-832q0 -172 -45 -300t-141 -212t-249 -124.5t-370 -40.5q-215 0 -367.5 40.5t-248.5 124.5t-141.5 212t-45.5 300zM709 1581v117l524 157v-161z " />
<glyph unicode="&#xdb;" horiz-adv-x="1820" d="M106 657v832h269v-832q0 -113 27.5 -192.5t90 -130.5t167 -74.5t258.5 -23.5t258 23.5t166.5 74.5t90 131t27.5 192v832h254v-832q0 -172 -45 -300t-141 -212t-249 -124.5t-370 -40.5q-215 0 -367.5 40.5t-248.5 124.5t-141.5 212t-45.5 300zM631 1581l186 274h186 l187 -274h-144l-129 199h-16l-129 -199h-141z" />
<glyph unicode="&#xdc;" horiz-adv-x="1820" d="M106 657v832h269v-832q0 -113 27.5 -192.5t90 -130.5t167 -74.5t258.5 -23.5t258 23.5t166.5 74.5t90 131t27.5 192v832h254v-832q0 -172 -45 -300t-141 -212t-249 -124.5t-370 -40.5q-215 0 -367.5 40.5t-248.5 124.5t-141.5 212t-45.5 300zM617 1737q0 43 29.5 67.5 t76.5 24.5q43 0 72.5 -24.5t29.5 -67.5t-29.5 -67.5t-72.5 -24.5q-47 0 -76.5 24.5t-29.5 67.5zM995 1737q0 43 30 67.5t75 24.5t74.5 -24.5t29.5 -67.5t-29.5 -67.5t-74.5 -24.5t-75 24.5t-30 67.5z" />
<glyph unicode="&#xdd;" horiz-adv-x="1896" d="M27 1489h350l579 -686l582 686h332l-793 -924v-565h-260v565zM756 1581v117l524 157v-161z" />
<glyph unicode="&#xde;" horiz-adv-x="1726" d="M129 0v1489h258v-207h727q129 0 232.5 -38t174 -108.5t108.5 -171t38 -223.5q0 -125 -38 -227t-108.5 -175t-174 -113t-232.5 -40h-536v250h536q141 0 219 81t78 216t-78 212t-219 77h-727v-1022h-258z" />
<glyph unicode="&#xdf;" horiz-adv-x="3604" d="M106 1071q0 90 30 167t88.5 132t144.5 87t196 32h1069v-260h-1069q-90 0 -139 -48t-49 -134t50 -133.5t136 -47.5h682q227 0 345 -106.5t118 -323.5q0 -94 -28.5 -174t-86 -138t-144.5 -91t-204 -33h-1116v260h1116q104 0 160.5 53.5t56.5 141.5q0 96 -56 144t-161 48 h-684q-104 0 -189 32t-143.5 88t-90.5 134t-32 170zM1908 1071q0 90 30 167t88.5 132t144.5 87t196 32h1069v-260h-1069q-90 0 -139 -48t-49 -134t50 -133.5t136 -47.5h682q227 0 345 -106.5t118 -323.5q0 -94 -28.5 -174t-86 -138t-144.5 -91t-204 -33h-1116v260h1116 q104 0 160.5 53.5t56.5 141.5q0 96 -56 144t-161 48h-684q-104 0 -189 32t-143.5 88t-90.5 134t-32 170z" />
<glyph unicode="&#xe0;" d="M29 0l856 1425q23 39 53.5 61.5t73.5 22.5t72.5 -22.5t52.5 -61.5l858 -1425h-314l-223 375h-704l123 211h456l-332 557l-675 -1143h-297zM689 1694v161l524 -157v-117z" />
<glyph unicode="&#xe1;" d="M29 0l856 1425q23 39 53.5 61.5t73.5 22.5t72.5 -22.5t52.5 -61.5l858 -1425h-314l-223 375h-704l123 211h456l-332 557l-675 -1143h-297zM811 1581v117l524 157v-161z" />
<glyph unicode="&#xe2;" d="M29 0l856 1425q23 39 53.5 61.5t73.5 22.5t72.5 -22.5t52.5 -61.5l858 -1425h-314l-223 375h-704l123 211h456l-332 557l-675 -1143h-297zM734 1581l186 274h186l187 -274h-144l-129 199h-16l-129 -199h-141z" />
<glyph unicode="&#xe3;" d="M29 0l856 1425q23 39 53.5 61.5t73.5 22.5t72.5 -22.5t52.5 -61.5l858 -1425h-314l-223 375h-704l123 211h456l-332 557l-675 -1143h-297zM750 1634v121q23 29 57.5 45.5t75.5 16.5q35 0 66.5 -13.5t62 -29t61.5 -27.5t66 -12q41 0 77.5 22.5t57.5 50.5v-122 q-47 -59 -135 -60q-35 0 -66 12.5t-61.5 27.5t-62.5 27.5t-66 12.5q-41 0 -78 -21.5t-55 -50.5z" />
<glyph unicode="&#xe4;" d="M29 0l856 1425q23 39 53.5 61.5t73.5 22.5t72.5 -22.5t52.5 -61.5l858 -1425h-314l-223 375h-704l123 211h456l-332 557l-675 -1143h-297zM719 1737q0 43 29.5 67.5t76.5 24.5q43 0 72.5 -24.5t29.5 -67.5t-29.5 -67.5t-72.5 -24.5q-47 0 -76.5 24.5t-29.5 67.5z M1097 1737q0 43 30 67.5t75 24.5t74.5 -24.5t29.5 -67.5t-29.5 -67.5t-74.5 -24.5t-75 24.5t-30 67.5z" />
<glyph unicode="&#xe5;" d="M29 0l856 1425q23 39 53.5 61.5t73.5 22.5t72.5 -22.5t52.5 -61.5l858 -1425h-314l-223 375h-704l123 211h456l-332 557l-675 -1143h-297zM750 1792q0 92 58 148.5t150 56.5h105q92 0 151.5 -56.5t59.5 -148.5q0 -90 -59.5 -150.5t-151.5 -60.5h-105q-92 0 -150 60.5 t-58 150.5zM827 1790q0 -57 36 -95t95 -38h105q59 0 96 38t37 95t-37 93t-96 36h-105q-57 0 -94 -36t-37 -93z" />
<glyph unicode="&#xe6;" horiz-adv-x="2754" d="M29 0l815 1401q25 41 55.5 64.5t73.5 23.5h1683v-260h-985v-969h989v-260h-1247v362h-676l127 216h549v651h-391l-700 -1229h-293zM1862 647v219h739v-219h-739z" />
<glyph unicode="&#xe7;" horiz-adv-x="1697" d="M86 760q0 164 54.5 299t151.5 230t229 147.5t288 52.5h807v-260h-807q-100 0 -185 -36t-146.5 -99.5t-96.5 -151.5t-35 -194q0 -104 35 -194.5t96.5 -155t146.5 -101.5t185 -37h807v-260h-807q-156 0 -288 58.5t-229 159.5t-151.5 240.5t-54.5 301.5zM754 -96h272 l-137 -316z" />
<glyph unicode="&#xe8;" horiz-adv-x="1554" d="M129 0v1489h1329v-260h-1071v-969h1073v-260h-1331zM453 1694v161l524 -157v-117zM578 647v219h825v-219h-825z" />
<glyph unicode="&#xe9;" horiz-adv-x="1554" d="M129 0v1489h1329v-260h-1071v-969h1073v-260h-1331zM576 1581v117l524 157v-161zM578 647v219h825v-219h-825z" />
<glyph unicode="&#xea;" horiz-adv-x="1554" d="M129 0v1489h1329v-260h-1071v-969h1073v-260h-1331zM498 1581l186 274h186l187 -274h-144l-129 199h-16l-129 -199h-141zM578 647v219h825v-219h-825z" />
<glyph unicode="&#xeb;" horiz-adv-x="1554" d="M129 0v1489h1329v-260h-1071v-969h1073v-260h-1331zM484 1737q0 43 29.5 67.5t76.5 24.5q43 0 72.5 -24.5t29.5 -67.5t-29.5 -67.5t-72.5 -24.5q-47 0 -76.5 24.5t-29.5 67.5zM578 647v219h825v-219h-825zM862 1737q0 43 30 67.5t75 24.5t74.5 -24.5t29.5 -67.5 t-29.5 -67.5t-74.5 -24.5t-75 24.5t-30 67.5z" />
<glyph unicode="&#xec;" horiz-adv-x="546" d="M-47 1694v161l524 -157v-117zM143 0v1489h260v-1489h-260z" />
<glyph unicode="&#xed;" horiz-adv-x="546" d="M76 1581v117l524 157v-161zM143 0v1489h260v-1489h-260z" />
<glyph unicode="&#xee;" horiz-adv-x="546" d="M-4 1581l186 274h186l187 -274h-144l-129 199h-16l-129 -199h-141zM143 0v1489h260v-1489h-260z" />
<glyph unicode="&#xef;" horiz-adv-x="546" d="M-18 1737q0 43 29.5 67.5t76.5 24.5q43 0 72.5 -24.5t29.5 -67.5t-29.5 -67.5t-72.5 -24.5q-47 0 -76.5 24.5t-29.5 67.5zM143 0v1489h260v-1489h-260zM360 1737q0 43 30 67.5t75 24.5t74.5 -24.5t29.5 -67.5t-29.5 -67.5t-74.5 -24.5t-75 24.5t-30 67.5z" />
<glyph unicode="&#xf0;" horiz-adv-x="1796" d="M20 647v219h105v623h862q158 0 291 -53.5t230.5 -149.5t151.5 -230t54 -296t-54 -301.5t-151.5 -240.5t-230.5 -159.5t-291 -58.5h-862v647h-105zM383 260h604q100 0 185 37t147.5 101.5t97.5 154.5t35 195q0 104 -35 193t-97.5 152.5t-147.5 99.5t-185 36h-604v-363h586 v-219h-586v-387z" />
<glyph unicode="&#xf1;" horiz-adv-x="1787" d="M123 0v1352q0 72 36 113.5t97 41.5q29 0 55.5 -12t55.5 -41l1050 -1042v1089h248v-1364q0 -74 -36 -114.5t-93 -40.5q-63 0 -119 55l-1046 1053v-1090h-248zM631 1634v121q23 29 57.5 45.5t75.5 16.5q35 0 66.5 -13.5t62 -29t61.5 -27.5t66 -12q41 0 77.5 22.5t57.5 50.5 v-122q-47 -59 -135 -60q-35 0 -66 12.5t-61.5 27.5t-62.5 27.5t-66 12.5q-41 0 -78 -21.5t-55 -50.5z" />
<glyph unicode="&#xf2;" horiz-adv-x="1982" d="M86 760q0 164 54.5 299t151.5 230t229 147.5t288 52.5h362q162 0 296.5 -53.5t230.5 -149.5t149.5 -230t53.5 -296t-54.5 -301.5t-152 -240.5t-230.5 -159.5t-293 -58.5h-362q-156 0 -288 58.5t-229 159.5t-151.5 240.5t-54.5 301.5zM346 748q0 -104 35 -194.5t96.5 -155 t146.5 -101.5t185 -37h362q102 0 188.5 37t149 101.5t97 154.5t34.5 195q0 104 -34.5 193t-97 152.5t-148.5 99.5t-189 36h-362q-100 0 -185 -36t-146.5 -99.5t-96.5 -151.5t-35 -194zM668 1694v161l524 -157v-117z" />
<glyph unicode="&#xf3;" horiz-adv-x="1982" d="M86 760q0 164 54.5 299t151.5 230t229 147.5t288 52.5h362q162 0 296.5 -53.5t230.5 -149.5t149.5 -230t53.5 -296t-54.5 -301.5t-152 -240.5t-230.5 -159.5t-293 -58.5h-362q-156 0 -288 58.5t-229 159.5t-151.5 240.5t-54.5 301.5zM346 748q0 -104 35 -194.5t96.5 -155 t146.5 -101.5t185 -37h362q102 0 188.5 37t149 101.5t97 154.5t34.5 195q0 104 -34.5 193t-97 152.5t-148.5 99.5t-189 36h-362q-100 0 -185 -36t-146.5 -99.5t-96.5 -151.5t-35 -194zM791 1581v117l524 157v-161z" />
<glyph unicode="&#xf4;" horiz-adv-x="1982" d="M86 760q0 164 54.5 299t151.5 230t229 147.5t288 52.5h362q162 0 296.5 -53.5t230.5 -149.5t149.5 -230t53.5 -296t-54.5 -301.5t-152 -240.5t-230.5 -159.5t-293 -58.5h-362q-156 0 -288 58.5t-229 159.5t-151.5 240.5t-54.5 301.5zM346 748q0 -104 35 -194.5t96.5 -155 t146.5 -101.5t185 -37h362q102 0 188.5 37t149 101.5t97 154.5t34.5 195q0 104 -34.5 193t-97 152.5t-148.5 99.5t-189 36h-362q-100 0 -185 -36t-146.5 -99.5t-96.5 -151.5t-35 -194zM711 1581l186 274h186l187 -274h-144l-129 199h-16l-129 -199h-141z" />
<glyph unicode="&#xf5;" horiz-adv-x="1982" d="M86 760q0 164 54.5 299t151.5 230t229 147.5t288 52.5h362q162 0 296.5 -53.5t230.5 -149.5t149.5 -230t53.5 -296t-54.5 -301.5t-152 -240.5t-230.5 -159.5t-293 -58.5h-362q-156 0 -288 58.5t-229 159.5t-151.5 240.5t-54.5 301.5zM346 748q0 -104 35 -194.5t96.5 -155 t146.5 -101.5t185 -37h362q102 0 188.5 37t149 101.5t97 154.5t34.5 195q0 104 -34.5 193t-97 152.5t-148.5 99.5t-189 36h-362q-100 0 -185 -36t-146.5 -99.5t-96.5 -151.5t-35 -194zM730 1634v121q23 29 57.5 45.5t75.5 16.5q35 0 66.5 -13.5t62 -29t61.5 -27.5t66 -12 q41 0 77.5 22.5t57.5 50.5v-122q-47 -59 -135 -60q-35 0 -66 12.5t-61.5 27.5t-62.5 27.5t-66 12.5q-41 0 -78 -21.5t-55 -50.5z" />
<glyph unicode="&#xf6;" horiz-adv-x="1982" d="M86 760q0 164 54.5 299t151.5 230t229 147.5t288 52.5h362q162 0 296.5 -53.5t230.5 -149.5t149.5 -230t53.5 -296t-54.5 -301.5t-152 -240.5t-230.5 -159.5t-293 -58.5h-362q-156 0 -288 58.5t-229 159.5t-151.5 240.5t-54.5 301.5zM346 748q0 -104 35 -194.5t96.5 -155 t146.5 -101.5t185 -37h362q102 0 188.5 37t149 101.5t97 154.5t34.5 195q0 104 -34.5 193t-97 152.5t-148.5 99.5t-189 36h-362q-100 0 -185 -36t-146.5 -99.5t-96.5 -151.5t-35 -194zM697 1737q0 43 29.5 67.5t76.5 24.5q43 0 72.5 -24.5t29.5 -67.5t-29.5 -67.5 t-72.5 -24.5q-47 0 -76.5 24.5t-29.5 67.5zM1075 1737q0 43 30 67.5t75 24.5t74.5 -24.5t29.5 -67.5t-29.5 -67.5t-74.5 -24.5t-75 24.5t-30 67.5z" />
<glyph unicode="&#xf7;" horiz-adv-x="1413" d="M129 672v172h1155v-172h-1155zM567 205q0 59 39 99t98 40t100.5 -40t41.5 -99t-41 -99t-101 -40q-59 0 -98 39.5t-39 99.5zM567 1290q0 59 39 99t98 40t100.5 -40t41.5 -99t-41 -99t-101 -40q-59 0 -98 39.5t-39 99.5z" />
<glyph unicode="&#xf8;" horiz-adv-x="1982" d="M86 760q0 164 54.5 299t151.5 230t229 147.5t288 52.5h362q94 0 179.5 -18.5t158.5 -53.5l146 172l78 -67l-134 -156q141 -96 221.5 -252t80.5 -354q0 -162 -54.5 -301.5t-152 -240.5t-230.5 -159.5t-293 -58.5h-362q-86 0 -163 17.5t-146 50.5l-144 -170l-77 67l129 154 q-147 100 -234.5 266t-87.5 375zM346 748q0 -145 62.5 -257t169.5 -172l751 885q-37 10 -77 17.5t-81 7.5h-362q-100 0 -185 -36t-146.5 -99.5t-96.5 -151.5t-35 -194zM678 276q66 -16 131 -16h362q102 0 188.5 37t149 101.5t97 154.5t34.5 195q0 137 -57 243.5t-158 167.5z " />
<glyph unicode="&#xf9;" horiz-adv-x="1820" d="M106 657v832h269v-832q0 -113 27.5 -192.5t90 -130.5t167 -74.5t258.5 -23.5t258 23.5t166.5 74.5t90 131t27.5 192v832h254v-832q0 -172 -45 -300t-141 -212t-249 -124.5t-370 -40.5q-215 0 -367.5 40.5t-248.5 124.5t-141.5 212t-45.5 300zM586 1694v161l524 -157v-117 z" />
<glyph unicode="&#xfa;" horiz-adv-x="1820" d="M106 657v832h269v-832q0 -113 27.5 -192.5t90 -130.5t167 -74.5t258.5 -23.5t258 23.5t166.5 74.5t90 131t27.5 192v832h254v-832q0 -172 -45 -300t-141 -212t-249 -124.5t-370 -40.5q-215 0 -367.5 40.5t-248.5 124.5t-141.5 212t-45.5 300zM709 1581v117l524 157v-161z " />
<glyph unicode="&#xfb;" horiz-adv-x="1820" d="M106 657v832h269v-832q0 -113 27.5 -192.5t90 -130.5t167 -74.5t258.5 -23.5t258 23.5t166.5 74.5t90 131t27.5 192v832h254v-832q0 -172 -45 -300t-141 -212t-249 -124.5t-370 -40.5q-215 0 -367.5 40.5t-248.5 124.5t-141.5 212t-45.5 300zM631 1581l186 274h186 l187 -274h-144l-129 199h-16l-129 -199h-141z" />
<glyph unicode="&#xfc;" horiz-adv-x="1820" d="M106 657v832h269v-832q0 -113 27.5 -192.5t90 -130.5t167 -74.5t258.5 -23.5t258 23.5t166.5 74.5t90 131t27.5 192v832h254v-832q0 -172 -45 -300t-141 -212t-249 -124.5t-370 -40.5q-215 0 -367.5 40.5t-248.5 124.5t-141.5 212t-45.5 300zM617 1737q0 43 29.5 67.5 t76.5 24.5q43 0 72.5 -24.5t29.5 -67.5t-29.5 -67.5t-72.5 -24.5q-47 0 -76.5 24.5t-29.5 67.5zM995 1737q0 43 30 67.5t75 24.5t74.5 -24.5t29.5 -67.5t-29.5 -67.5t-74.5 -24.5t-75 24.5t-30 67.5z" />
<glyph unicode="&#xfd;" horiz-adv-x="1896" d="M27 1489h350l579 -686l582 686h332l-793 -924v-565h-260v565zM756 1581v117l524 157v-161z" />
<glyph unicode="&#xfe;" horiz-adv-x="1726" d="M129 0v1489h258v-207h727q129 0 232.5 -38t174 -108.5t108.5 -171t38 -223.5q0 -125 -38 -227t-108.5 -175t-174 -113t-232.5 -40h-536v250h536q141 0 219 81t78 216t-78 212t-219 77h-727v-1022h-258z" />
<glyph unicode="&#xff;" horiz-adv-x="1896" d="M27 1489h350l579 -686l582 686h332l-793 -924v-565h-260v565zM662 1737q0 43 29.5 67.5t76.5 24.5q43 0 72.5 -24.5t29.5 -67.5t-29.5 -67.5t-72.5 -24.5q-47 0 -76.5 24.5t-29.5 67.5zM1040 1737q0 43 30 67.5t75 24.5t74.5 -24.5t29.5 -67.5t-29.5 -67.5t-74.5 -24.5 t-75 24.5t-30 67.5z" />
<glyph unicode="&#x152;" horiz-adv-x="2670" d="M86 760q0 164 54.5 299t151.5 230t229 147.5t288 52.5h1765v-260h-1011v-969h1013v-260h-1767q-156 0 -288 58.5t-229 159.5t-151.5 240.5t-54.5 301.5zM346 748q0 -104 35 -194.5t96.5 -155t146.5 -101.5t185 -37h494v969h-494q-100 0 -185 -36t-146.5 -99.5 t-96.5 -151.5t-35 -194zM1751 647v219h766v-219h-766z" />
<glyph unicode="&#x153;" horiz-adv-x="2670" d="M86 760q0 164 54.5 299t151.5 230t229 147.5t288 52.5h1765v-260h-1011v-969h1013v-260h-1767q-156 0 -288 58.5t-229 159.5t-151.5 240.5t-54.5 301.5zM346 748q0 -104 35 -194.5t96.5 -155t146.5 -101.5t185 -37h494v969h-494q-100 0 -185 -36t-146.5 -99.5 t-96.5 -151.5t-35 -194zM1751 647v219h766v-219h-766z" />
<glyph unicode="&#x178;" horiz-adv-x="1896" d="M27 1489h350l579 -686l582 686h332l-793 -924v-565h-260v565zM662 1737q0 43 29.5 67.5t76.5 24.5q43 0 72.5 -24.5t29.5 -67.5t-29.5 -67.5t-72.5 -24.5q-47 0 -76.5 24.5t-29.5 67.5zM1040 1737q0 43 30 67.5t75 24.5t74.5 -24.5t29.5 -67.5t-29.5 -67.5t-74.5 -24.5 t-75 24.5t-30 67.5z" />
<glyph unicode="&#x2c6;" horiz-adv-x="776" d="M109 1581l186 274h186l187 -274h-144l-129 199h-16l-129 -199h-141z" />
<glyph unicode="&#x2dc;" horiz-adv-x="741" d="M109 1634v121q23 29 57.5 45.5t75.5 16.5q35 0 66.5 -13.5t62 -29t61.5 -27.5t66 -12q41 0 77.5 22.5t57.5 50.5v-122q-47 -59 -135 -60q-35 0 -66 12.5t-61.5 27.5t-62.5 27.5t-66 12.5q-41 0 -78 -21.5t-55 -50.5z" />
<glyph unicode="&#x2000;" horiz-adv-x="998" />
<glyph unicode="&#x2001;" horiz-adv-x="1997" />
<glyph unicode="&#x2002;" horiz-adv-x="998" />
<glyph unicode="&#x2003;" horiz-adv-x="1997" />
<glyph unicode="&#x2004;" horiz-adv-x="665" />
<glyph unicode="&#x2005;" horiz-adv-x="499" />
<glyph unicode="&#x2006;" horiz-adv-x="332" />
<glyph unicode="&#x2007;" horiz-adv-x="332" />
<glyph unicode="&#x2008;" horiz-adv-x="249" />
<glyph unicode="&#x2009;" horiz-adv-x="399" />
<glyph unicode="&#x200a;" horiz-adv-x="110" />
<glyph unicode="&#x2010;" horiz-adv-x="606" d="M59 670v174h492v-174h-492z" />
<glyph unicode="&#x2011;" horiz-adv-x="606" d="M59 670v174h492v-174h-492z" />
<glyph unicode="&#x2012;" horiz-adv-x="606" d="M59 670v174h492v-174h-492z" />
<glyph unicode="&#x2013;" horiz-adv-x="1208" d="M59 655v205h1096v-205h-1096z" />
<glyph unicode="&#x2014;" horiz-adv-x="1773" d="M59 655v205h1659v-205h-1659z" />
<glyph unicode="&#x2018;" horiz-adv-x="530" d="M129 1489h272v-533h-170z" />
<glyph unicode="&#x2019;" horiz-adv-x="530" d="M139 956v533h262l-102 -533h-160z" />
<glyph unicode="&#x201a;" horiz-adv-x="530" d="M139 -242v533h262l-102 -533h-160z" />
<glyph unicode="&#x201c;" horiz-adv-x="946" d="M129 1489h272v-533h-170zM565 1489h273v-533h-168z" />
<glyph unicode="&#x201d;" horiz-adv-x="946" d="M139 956v533h262l-102 -533h-160zM575 956v533h263l-103 -533h-160z" />
<glyph unicode="&#x201e;" horiz-adv-x="946" d="M139 -242v533h262l-102 -533h-160zM575 -242v533h263l-103 -533h-160z" />
<glyph unicode="&#x2022;" horiz-adv-x="845" d="M129 760q0 61 22.5 114.5t62.5 93.5t93 63.5t113 23.5q61 0 114.5 -23.5t94.5 -63.5t64.5 -93.5t23.5 -114.5q0 -59 -23.5 -113.5t-64.5 -94.5t-94.5 -63.5t-114.5 -23.5q-59 0 -112.5 23.5t-93.5 63.5t-62.5 94t-22.5 114z" />
<glyph unicode="&#x2026;" horiz-adv-x="2682" d="M129 123q0 59 39 99t98 40t100.5 -40t41.5 -99t-41 -99t-101 -40q-59 0 -98 39.5t-39 99.5zM1202 123q0 59 39 99t98 40t100.5 -40t41.5 -99t-41 -99t-101 -40q-59 0 -98 39.5t-39 99.5zM2275 123q0 59 39 99t98 40t100.5 -40t41.5 -99t-41 -99t-101 -40q-59 0 -98 39.5 t-39 99.5z" />
<glyph unicode="&#x202f;" horiz-adv-x="399" />
<glyph unicode="&#x2039;" horiz-adv-x="751" d="M86 760q0 33 35 55l547 328v-129l-447 -256l447 -258v-121l-547 330q-35 23 -35 51z" />
<glyph unicode="&#x203a;" horiz-adv-x="753" d="M86 379v121l446 258l-446 256v129l549 -328q35 -20 35 -55q0 -31 -35 -51z" />
<glyph unicode="&#x205f;" horiz-adv-x="499" />
<glyph unicode="&#x20ac;" horiz-adv-x="1810" d="M61 561l27 94h129q-6 49 -6 105q0 20 1 41.5t3 42.5h-154l27 96h141q27 125 91.5 226.5t156.5 173t209 110.5t250 39h809l-170 -260h-639q-150 0 -260.5 -78t-157.5 -211h879l-64 -96h-852q-4 -23 -6 -47.5t-2 -48.5q0 -47 6 -93h735l-61 -94h-639q47 -135 157.5 -218 t264.5 -83h692v-260h-692q-131 0 -247 41t-207 115.5t-155.5 178t-93.5 226.5h-172z" />
<glyph unicode="&#x2122;" horiz-adv-x="1097" d="M92 1401v88h371v-88h-139v-418h-91v418h-141zM530 983v506h84l136 -361l137 361h82v-506h-88v283l-95 -283h-69l-99 283v-283h-88z" />
<glyph unicode="&#xe000;" horiz-adv-x="1484" d="M0 0v1485h1485v-1485h-1485z" />
</font>
</defs>
</svg>
